:FULLY-SPECIFIED
:FORCE-ALL-JOINTS-BE-3DOF
:DEGREES
1529
root -4.65552 15.3261 19.9206 -171.318 -16.3897 -176.078
lfemur -40.3483 17.4335 -10.9872
ltibia 84.4982 -0 0
lfoot -14.1936 24.2695 -0.0158625
ltoes -12.8027 0 0
rfemur -37.3002 -4.0443 15.858
rtibia 62.0559 -0 0
rfoot -19.0587 -14.5402 -0.249962
rtoes -31.9166 0 0
lowerback 16.324 1.00204 4.16433
upperback -1.29227 2.33691 3.97126
thorax -10.5992 0.893733 1.38086
lowerneck -4.16991 6.58759 2.82917
upperneck 1.989 8.83723 -8.36779
head 2.00552 4.2215 -2.89039
lclavicle -4.24634e-14 -1.3395e-14 5.47398e-30
lhumerus -3.63354 -31.5527 80.984
lradius 93.0422 -0 0
lwrist -6.95836 0 0
lhand -28.0818 57.5609 0.136363
lfingers 7.12502 -0 0
lthumb -1.25541 -27.9722 -1.68686
rclavicle -4.24634e-14 -1.3395e-14 5.47398e-30
rhumerus -53.0409 35.4922 -89.756
rradius 106.93 -0 0
rwrist -55.0992 0 0
rhand 8.03322 -30.3875 0.108268
rfingers 7.12502 -0 0
rthumb 33.2475 -57.2326 0.137781
1530
root -4.66359 15.3367 19.936 -171.399 -19.5315 -176.175
lfemur -40.0944 17.6078 -10.2961
ltibia 82.5513 -0 0
lfoot -14.2776 24.8103 -0.0166558
ltoes -11.7536 0 0
rfemur -36.2656 -4.79686 15.606
rtibia 61.7951 -0 0
rfoot -18.5276 -15.8913 -0.262488
rtoes -32.0888 0 0
lowerback 16.0565 0.893829 3.94251
upperback -1.28272 2.14211 3.96384
thorax -10.4408 0.821892 1.5457
lowerneck -4.21726 6.14066 2.62174
upperneck 1.75784 8.22315 -7.96381
head 1.87041 3.92977 -2.74363
lclavicle -4.56287e-14 -8.44072e-15 5.74768e-30
lhumerus -4.50605 -26.2808 80.7553
lradius 88.2159 -0 0
lwrist -9.81774 0 0
lhand -28.3925 56.3016 0.143194
lfingers 7.12502 -0 0
lthumb -1.69118 -14.7917 -1.78887
rclavicle -4.56287e-14 -8.44072e-15 5.74768e-30
rhumerus -54.3096 33.9291 -90.3335
rradius 106.442 -0 0
rwrist -56.2958 0 0
rhand 7.29997 -30.8108 0.113685
rfingers 7.12502 -0 0
rthumb 32.5495 -57.7985 0.144676
1531
root -4.67165 15.3473 19.9513 -171.476 -22.6735 -176.27
lfemur -39.8381 17.7792 -9.60353
ltibia 80.6043 -0 0
lfoot -14.3617 25.3511 -0.0166558
ltoes -10.7046 0 0
rfemur -35.2265 -5.54475 15.3402
rtibia 61.5343 -0 0
rfoot -17.9964 -17.2424 -0.262488
rtoes -32.2609 0 0
lowerback 15.7895 0.784582 3.7212
upperback -1.27314 1.9473 3.95638
thorax -10.2826 0.749597 1.71034
lowerneck -4.26294 5.69357 2.41484
upperneck 1.52267 7.6107 -7.55794
head 1.73459 3.63839 -2.59624
lclavicle -4.8794e-14 -3.48638e-15 5.74768e-30
lhumerus -5.36658 -21.0125 80.4499
lradius 83.3895 -0 0
lwrist -12.6771 0 0
lhand -28.7033 55.0424 0.143194
lfingers 7.12502 -0 0
lthumb -2.13876 -1.6104 -1.78887
rclavicle -4.8794e-14 -3.48638e-15 5.74768e-30
rhumerus -55.5371 32.356 -90.8596
rradius 105.953 -0 0
rwrist -57.4923 0 0
rhand 6.56669 -31.2341 0.113685
rfingers 7.12502 -0 0
rthumb 31.8514 -58.3644 0.144676
1532
root -4.67972 15.3579 19.9667 -171.549 -25.8156 -176.362
lfemur -39.5794 17.9476 -8.90947
ltibia 78.6574 -0 0
lfoot -14.4457 25.8919 -0.0158625
ltoes -9.65556 0 0
rfemur -34.1824 -6.28771 15.0604
rtibia 61.2735 -0 0
rfoot -17.4653 -18.5934 -0.249962
rtoes -32.4331 0 0
lowerback 15.5229 0.674306 3.50041
upperback -1.26354 1.75249 3.9489
thorax -10.1246 0.676848 1.87478
lowerneck -4.30697 5.24632 2.20846
upperneck 1.28344 6.99992 -7.1501
head 1.59806 3.34736 -2.44819
lclavicle -5.19593e-14 1.46795e-15 5.47398e-30
lhumerus -6.23033 -15.749 80.0716
lradius 78.5632 -0 0
lwrist -15.5365 0 0
lhand -29.014 53.7831 0.136363
lfingers 7.12502 -0 0
lthumb -2.57454 11.5701 -1.68686
rclavicle -5.19593e-14 1.46795e-15 5.47398e-30
rhumerus -56.7272 30.774 -91.3377
rradius 105.465 -0 0
rwrist -58.6889 0 0
rhand 5.83344 -31.6574 0.108268
rfingers 7.12502 -0 0
rthumb 31.1534 -58.9303 0.137781
